<svg width="450" height="305" viewBox="0 0 450 305" fill="none" xmlns="http://www.w3.org/2000/svg">
<g clip-path="url(#clip0)">
<path d="M305.695 202.293H118.249V253.097H305.695V202.293Z" fill="#1B0F0F"/>
<rect x="120" y="32" width="184" height="82" fill="#1B0F0F"/>
<path d="M293.689 76.4261L286.204 79.9685L292.828 75.0152C291.752 73.3347 290.542 71.7432 289.212 70.2558L256.752 78.3239L286.072 67.1391C284.732 65.957 283.309 64.8724 281.814 63.8938L232.353 71.8607C227.101 78.4278 224.239 86.5852 224.235 94.9938H298.687C298.684 88.4725 296.96 82.0675 293.689 76.4261Z" fill="#F2F2F2"/>
<path d="M446.717 303.9H0V304.776H446.717V303.9Z" fill="#2F2E41"/>
<path d="M260.964 94.9936L235.622 57.3508C235.622 57.3508 274 70.7491 269.645 94.9936H260.964Z" fill="#FF1988"/>
<path d="M261.958 94.9936L287.3 57.3508C287.3 57.3508 248.922 70.7491 253.277 94.9936H261.958Z" fill="#97CFED"/>
<path d="M305.914 304.775H118.03V24.4822H305.914V304.775ZM118.906 303.899H305.038V25.3581H118.906V303.899Z" fill="#2F2E41"/>
<path d="M305.695 31.1316H118.687V32.0075H305.695V31.1316Z" fill="#2F2E41"/>
<path d="M123.504 29.738C124.471 29.738 125.256 28.9537 125.256 27.9862C125.256 27.0187 124.471 26.2344 123.504 26.2344C122.536 26.2344 121.752 27.0187 121.752 27.9862C121.752 28.9537 122.536 29.738 123.504 29.738Z" fill="#97CFED"/>
<path d="M128.322 29.738C129.289 29.738 130.073 28.9537 130.073 27.9862C130.073 27.0187 129.289 26.2344 128.322 26.2344C127.354 26.2344 126.57 27.0187 126.57 27.9862C126.57 28.9537 127.354 29.738 128.322 29.738Z" fill="#97CFED"/>
<path d="M133.139 29.738C134.107 29.738 134.891 28.9537 134.891 27.9862C134.891 27.0187 134.107 26.2344 133.139 26.2344C132.172 26.2344 131.387 27.0187 131.387 27.9862C131.387 28.9537 132.172 29.738 133.139 29.738Z" fill="#97CFED"/>
<path d="M133.139 37.1833H125.256V41.5629H133.139V37.1833Z" fill="#97CFED"/>
<path d="M163.796 71.7817H125.256V76.1613H163.796V71.7817Z" fill="#97CFED"/>
<path d="M262.337 41.5627L300.877 41.5627V37.1832L262.337 37.1832V41.5627Z" fill="#F2F2F2"/>
<path d="M190.073 79.2273H125.256V81.855H190.073V79.2273Z" fill="#F2F2F2"/>
<path d="M186.57 84.9207H125.256V87.5484H186.57V84.9207Z" fill="#F2F2F2"/>
<path d="M169.927 90.6143H125.256V93.242H169.927V90.6143Z" fill="#F2F2F2"/>
<path d="M165.549 168.571H140.147V171.198H165.549V168.571Z" fill="#F2F2F2"/>
<path d="M164.175 174.264H140.147V176.892H164.175V174.264Z" fill="#F2F2F2"/>
<path d="M157.653 179.958H140.147V182.585H157.653V179.958Z" fill="#F2F2F2"/>
<path d="M224.673 168.571H199.271V171.198H224.673V168.571Z" fill="#F2F2F2"/>
<path d="M223.3 174.264H199.271V176.892H223.3V174.264Z" fill="#F2F2F2"/>
<path d="M216.777 179.958H199.271V182.585H216.777V179.958Z" fill="#F2F2F2"/>
<path d="M285.986 168.571H260.585V171.198H285.986V168.571Z" fill="#F2F2F2"/>
<path d="M284.613 174.264H260.585V176.892H284.613V174.264Z" fill="#F2F2F2"/>
<path d="M278.091 179.958H260.585V182.585H278.091V179.958Z" fill="#F2F2F2"/>
<path d="M218.103 267.988H179.562V272.367H218.103V267.988Z" fill="#97CFED"/>
<path d="M244.38 275.432H179.562V278.06H244.38V275.432Z" fill="#F2F2F2"/>
<path d="M240.877 281.126H179.562V283.753H240.877V281.126Z" fill="#F2F2F2"/>
<path d="M224.234 286.819H179.562V289.447H224.234V286.819Z" fill="#F2F2F2"/>
<path opacity="0.3" d="M289.271 119.082H136.862V119.958H289.271V119.082Z" fill="#97CFED"/>
<path opacity="0.3" d="M169.052 134.41H136.643V163.315H169.052V134.41Z" fill="#97CFED"/>
<path d="M228.176 134.41H195.767V163.315H228.176V134.41Z" fill="#3F3D56"/>
<path d="M289.49 134.41H257.082V163.315H289.49V134.41Z" fill="#3F3D56"/>
<path d="M207.749 163.194L207.321 163.185C207.33 162.712 207.598 151.553 211.991 148.468L212.236 148.818C208.02 151.778 207.751 163.08 207.749 163.194Z" fill="#97CFED"/>
<path d="M214.252 148.327C215.432 148.327 216.389 147.37 216.389 146.189C216.389 145.009 215.432 144.052 214.252 144.052C213.071 144.052 212.114 145.009 212.114 146.189C212.114 147.37 213.071 148.327 214.252 148.327Z" fill="#97CFED"/>
<path d="M213.819 153.738C212.707 154.087 211.523 154.138 210.385 153.886C211.108 152.966 212.081 152.275 213.187 151.895C214.294 151.516 215.487 151.464 216.622 151.747C215.878 152.644 214.912 153.331 213.819 153.738Z" fill="#97CFED"/>
<path d="M269.064 163.194L268.636 163.185C268.645 162.712 268.912 151.553 273.306 148.468L273.551 148.818C269.335 151.778 269.066 163.08 269.064 163.194Z" fill="#97CFED"/>
<path d="M275.566 148.327C276.747 148.327 277.704 147.37 277.704 146.189C277.704 145.009 276.747 144.052 275.566 144.052C274.385 144.052 273.428 145.009 273.428 146.189C273.428 147.37 274.385 148.327 275.566 148.327Z" fill="#97CFED"/>
<path d="M275.134 153.738C274.022 154.087 272.838 154.138 271.7 153.886C272.423 152.966 273.396 152.275 274.502 151.895C275.609 151.516 276.801 151.464 277.936 151.747C277.193 152.644 276.226 153.331 275.134 153.738Z" fill="#97CFED"/>
<path d="M163.796 218.498H125.256V222.877H163.796V218.498Z" fill="#97CFED"/>
<path d="M190.073 225.943H125.256V228.571H190.073V225.943Z" fill="#F2F2F2"/>
<path d="M186.57 231.636H125.256V234.264H186.57V231.636Z" fill="#F2F2F2"/>
<path d="M169.927 237.33H125.256V239.958H169.927V237.33Z" fill="#F2F2F2"/>
<path opacity="0.4" d="M267.922 238.227C275.48 238.227 281.607 232.1 281.607 224.542C281.607 216.984 275.48 210.856 267.922 210.856C260.364 210.856 254.237 216.984 254.237 224.542C254.237 232.1 260.364 238.227 267.922 238.227Z" fill="#97CFED"/>
<path opacity="0.4" d="M242.593 240.678C247.895 240.678 252.193 236.38 252.193 231.078C252.193 225.776 247.895 221.478 242.593 221.478C237.291 221.478 232.993 225.776 232.993 231.078C232.993 236.38 237.291 240.678 242.593 240.678Z" fill="#97CFED"/>
<path d="M73.358 289.667C92.4663 289.667 107.957 274.176 107.957 255.068C107.957 235.96 92.4663 220.469 73.358 220.469C54.2496 220.469 38.7593 235.96 38.7593 255.068C38.7593 274.176 54.2496 289.667 73.358 289.667Z" fill="#1B0F0F"/>
<path d="M68.1023 282.221H57.5913V301.053H68.1023V282.221Z" fill="#2F2E41"/>
<path d="M89.124 282.221H78.613V301.053H89.124V282.221Z" fill="#2F2E41"/>
<path d="M66.3505 304.557C71.188 304.557 75.1096 303.086 75.1096 301.272C75.1096 299.458 71.188 297.987 66.3505 297.987C61.5129 297.987 57.5913 299.458 57.5913 301.272C57.5913 303.086 61.5129 304.557 66.3505 304.557Z" fill="#2F2E41"/>
<path d="M87.3722 304.119C92.2097 304.119 96.1314 302.648 96.1314 300.834C96.1314 299.02 92.2097 297.549 87.3722 297.549C82.5346 297.549 78.613 299.02 78.613 300.834C78.613 302.648 82.5346 304.119 87.3722 304.119Z" fill="#2F2E41"/>
<path d="M74.2336 258.133C80.7642 258.133 86.0584 252.839 86.0584 246.308C86.0584 239.778 80.7642 234.483 74.2336 234.483C67.7029 234.483 62.4087 239.778 62.4087 246.308C62.4087 252.839 67.7029 258.133 74.2336 258.133Z" fill="white"/>
<path d="M74.2341 244.994C76.411 244.994 78.1757 243.229 78.1757 241.052C78.1757 238.876 76.411 237.111 74.2341 237.111C72.0572 237.111 70.2925 238.876 70.2925 241.052C70.2925 243.229 72.0572 244.994 74.2341 244.994Z" fill="#1B0F0F"/>
<path d="M104.463 219.072C108.489 210.407 109.548 202.359 106.828 201.095C104.108 199.831 98.6389 205.83 94.6127 214.495C90.5866 223.159 89.5278 231.208 92.2478 232.472C94.9678 233.736 100.437 227.736 104.463 219.072Z" fill="#2F2E41"/>
<path d="M44.1262 242.583C46.777 241.18 45.3026 233.197 40.8329 224.753C36.3632 216.309 30.5909 210.601 27.94 212.004C25.2891 213.407 26.7635 221.39 31.2332 229.834C35.7029 238.279 41.4753 243.986 44.1262 242.583Z" fill="#2F2E41"/>
<path d="M365.349 245.48C368.147 244.401 367.63 236.3 364.194 227.385C360.758 218.47 355.704 212.117 352.905 213.196C350.107 214.275 350.623 222.376 354.059 231.291C357.496 240.206 362.55 246.558 365.349 245.48Z" fill="#2F2E41"/>
<path d="M391.18 289.974C410.288 289.974 425.778 274.483 425.778 255.375C425.778 236.267 410.288 220.776 391.18 220.776C372.071 220.776 356.581 236.267 356.581 255.375C356.581 274.483 372.071 289.974 391.18 289.974Z" fill="#1B0F0F"/>
<path d="M396.563 301.343L407.074 301.314L407.021 282.482L396.51 282.511L396.563 301.343Z" fill="#2F2E41"/>
<path d="M375.541 301.404L386.052 301.375L385.999 282.543L375.489 282.572L375.541 301.404Z" fill="#2F2E41"/>
<path d="M398.325 304.844C403.163 304.83 407.08 303.349 407.075 301.534C407.07 299.72 403.145 298.261 398.307 298.274C393.469 298.288 389.552 299.769 389.557 301.583C389.562 303.398 393.488 304.857 398.325 304.844Z" fill="#2F2E41"/>
<path d="M377.302 304.465C382.139 304.452 386.057 302.97 386.052 301.156C386.047 299.342 382.121 297.882 377.284 297.896C372.446 297.909 368.529 299.391 368.534 301.205C368.539 303.019 372.464 304.479 377.302 304.465Z" fill="#2F2E41"/>
<path d="M390.279 258.443C396.81 258.443 402.104 253.149 402.104 246.618C402.104 240.087 396.81 234.793 390.279 234.793C383.749 234.793 378.455 240.087 378.455 246.618C378.455 253.149 383.749 258.443 390.279 258.443Z" fill="white"/>
<path d="M390.279 250.56C392.456 250.56 394.221 248.795 394.221 246.618C394.221 244.441 392.456 242.677 390.279 242.677C388.102 242.677 386.337 244.441 386.337 246.618C386.337 248.795 388.102 250.56 390.279 250.56Z" fill="#3F3D56"/>
<path d="M432.445 244.112C441.066 239.993 447.007 234.461 445.714 231.754C444.421 229.048 436.384 230.193 427.763 234.311C419.142 238.429 413.202 243.962 414.495 246.668C415.788 249.375 423.824 248.23 432.445 244.112Z" fill="#1B0F0F"/>
<path d="M408.21 267.809C408.219 271.195 399.519 277.906 389.844 277.934C380.169 277.961 371.071 268.453 371.061 265.066C371.052 261.68 380.134 265.698 389.809 265.671C399.484 265.644 408.2 264.423 408.21 267.809Z" fill="white"/>
<path d="M83.3897 187.267C102.498 187.267 117.988 171.776 117.988 152.668C117.988 133.56 102.498 118.069 83.3897 118.069C64.2814 118.069 48.791 133.56 48.791 152.668C48.791 171.776 64.2814 187.267 83.3897 187.267Z" fill="#2F2E41"/>
<path d="M73.3807 178.451L63.0378 176.578L59.6832 195.109L70.0261 196.982L73.3807 178.451Z" fill="#2F2E41"/>
<path d="M94.0668 182.195L83.7239 180.323L80.3692 198.854L90.7121 200.726L94.0668 182.195Z" fill="#2F2E41"/>
<path d="M94.0283 207.78C95.2007 206.396 93.1585 202.739 89.4669 199.613C85.7753 196.487 81.8323 195.074 80.6599 196.459C79.4875 197.843 81.5297 201.5 85.2213 204.626C88.9129 207.752 92.8559 209.165 94.0283 207.78Z" fill="#2F2E41"/>
<path d="M73.7739 204.113C74.9463 202.729 72.9041 199.072 69.2125 195.946C65.5209 192.819 61.5779 191.407 60.4055 192.792C59.2331 194.176 61.2753 197.833 64.9669 200.959C68.6585 204.085 72.6015 205.497 73.7739 204.113Z" fill="#2F2E41"/>
<path d="M85.8119 156.03C92.3426 156.03 97.6368 150.736 97.6368 144.205C97.6368 137.675 92.3426 132.38 85.8119 132.38C79.2812 132.38 73.9871 137.675 73.9871 144.205C73.9871 150.736 79.2812 156.03 85.8119 156.03Z" fill="white"/>
<path d="M90.6709 143.908C92.8478 143.908 94.6125 142.143 94.6125 139.966C94.6125 137.789 92.8478 136.024 90.6709 136.024C88.494 136.024 86.7292 137.789 86.7292 139.966C86.7292 142.143 88.494 143.908 90.6709 143.908Z" fill="#3F3D56"/>
<path d="M116.55 151.658C125.863 149.524 132.869 145.423 132.199 142.5C131.529 139.576 123.436 138.937 114.123 141.071C104.811 143.206 97.8045 147.306 98.4746 150.23C99.1447 153.153 107.237 153.793 116.55 151.658Z" fill="#2F2E41"/>
<path d="M48.6337 162.952C57.9464 160.817 64.9525 156.717 64.2824 153.793C63.6123 150.87 55.5197 150.23 46.207 152.365C36.8944 154.5 29.8882 158.6 30.5583 161.523C31.2284 164.447 39.3211 165.087 48.6337 162.952Z" fill="#2F2E41"/>
<path d="M73.8866 166.302C73.5142 168.36 73.9743 170.481 75.1657 172.199C76.3571 173.917 78.1822 175.091 80.2395 175.464C82.2968 175.836 84.4178 175.376 86.136 174.185C87.8541 172.993 89.0285 171.168 89.4009 169.111C90.1765 164.827 86.8641 163.311 82.58 162.535C78.2958 161.76 74.6622 162.018 73.8866 166.302Z" fill="white"/>
<path d="M164.855 124.563L133.811 115.256L125.51 142.944L156.554 152.251L164.855 124.563Z" fill="#3F3D56"/>
<path d="M137.023 146.268L136.616 146.138C136.761 145.687 140.222 135.074 145.315 133.381L145.45 133.787C140.562 135.412 137.058 146.16 137.023 146.268Z" fill="#97CFED"/>
<path d="M148.134 133.985C149.315 133.985 150.272 133.027 150.272 131.847C150.272 130.666 149.315 129.709 148.134 129.709C146.954 129.709 145.997 130.666 145.997 131.847C145.997 133.027 146.954 133.985 148.134 133.985Z" fill="#97CFED"/>
<path d="M145.553 138.954C144.387 138.969 143.238 138.678 142.221 138.109C143.177 137.436 144.308 137.053 145.477 137.007C146.645 136.961 147.803 137.254 148.809 137.851C147.839 138.497 146.716 138.878 145.553 138.954Z" fill="#97CFED"/>
</g>
<defs>
<clipPath id="clip0">
<rect width="450" height="304.844" fill="white"/>
</clipPath>
</defs>
</svg>
